<svg width="168" height="136" viewBox="0 0 168 136" fill="none" xmlns="http://www.w3.org/2000/svg">
<path d="M168 131L158.735 124.108L157.399 135.577L168 131ZM147.384 127.471L147.135 128.439L147.384 127.471ZM130.516 116.883L131.275 116.232L131.275 116.232L130.516 116.883ZM128.641 93.5892L127.762 93.1134L127.762 93.1134L128.641 93.5892ZM140.512 106.295L139.91 105.496L140.512 106.295ZM120.989 79.705L121.684 80.4233L121.684 80.4233L120.989 79.705ZM82.3732 66.2935L81.4846 66.7523L82.3732 66.2935ZM140.749 90.2188L140.093 90.9736L140.749 90.2188ZM144.306 97.9647L143.306 97.9339L144.306 97.9647ZM159.232 128.973C155.152 128.264 150.776 127.31 147.633 126.502L147.135 128.439C150.331 129.26 154.759 130.226 158.89 130.944L159.232 128.973ZM147.633 126.502C139.641 124.448 134.809 120.355 131.275 116.232L129.756 117.533C133.482 121.881 138.647 126.258 147.135 128.439L147.633 126.502ZM131.275 116.232C130.525 115.357 128.449 112.842 127.376 109.043C126.312 105.275 126.215 100.178 129.521 94.0649L127.762 93.1134C124.196 99.7059 124.253 105.342 125.452 109.587C126.642 113.801 128.939 116.58 129.756 117.533L131.275 116.232ZM129.521 94.0649C131.468 90.4654 133.442 89.2193 135.1 89.0107C136.8 88.797 138.536 89.6207 140.093 90.9736L141.405 89.464C139.658 87.9462 137.367 86.7099 134.851 87.0264C132.294 87.348 129.866 89.2224 127.762 93.1134L129.521 94.0649ZM143.306 97.9339C143.206 101.201 141.742 104.116 139.91 105.496L141.113 107.094C143.528 105.274 145.19 101.733 145.305 97.9955L143.306 97.9339ZM139.91 105.496C139.657 105.686 139.046 105.918 137.978 106.058C136.953 106.191 135.64 106.224 134.116 106.127C131.071 105.934 127.272 105.232 123.409 103.879C115.65 101.163 107.873 95.9156 105.195 87.1766L103.283 87.7625C106.228 97.376 114.712 102.953 122.748 105.767C126.781 107.18 130.761 107.919 133.99 108.123C135.603 108.226 137.051 108.196 138.237 108.041C139.38 107.892 140.428 107.609 141.113 107.094L139.91 105.496ZM105.195 87.1766C102.514 78.4252 105.927 69.5981 111.006 63.7745C113.542 60.8663 116.433 58.781 119.071 57.8385C121.711 56.8955 123.92 57.1393 125.419 58.5513L126.79 57.0952C124.542 54.9779 121.44 54.8687 118.399 55.9551C115.356 57.0419 112.195 59.3682 109.498 62.46C104.113 68.636 100.341 78.1614 103.283 87.7625L105.195 87.1766ZM125.419 58.5513C128.713 61.6528 128.443 65.7574 126.722 69.775C125.002 73.788 121.944 77.3875 120.293 78.9866L121.684 80.4233C123.454 78.7099 126.702 74.8979 128.56 70.5628C130.416 66.2323 130.993 61.0523 126.79 57.0952L125.419 58.5513ZM120.293 78.9866C119.406 79.8455 117.357 80.811 114.451 81.3935C111.592 81.9667 108.047 82.1391 104.298 81.541C96.8284 80.3489 88.5635 76.1036 83.2617 65.8348L81.4846 66.7523C87.1159 77.6595 95.9721 82.2375 103.983 83.516C107.976 84.1531 111.761 83.9725 114.844 83.3545C117.88 82.7459 120.385 81.6821 121.684 80.4233L120.293 78.9866ZM83.2617 65.8348C81.1605 61.765 80.0831 56.2656 79.5399 51.619C78.9997 46.9978 79 43.3355 79 43H77C77 43.3703 77.0003 47.1197 77.5534 51.8512C78.1035 56.5573 79.2126 62.3518 81.4846 66.7523L83.2617 65.8348ZM140.093 90.9736C142.13 92.7433 143.387 95.3152 143.306 97.9339L145.305 97.9955C145.407 94.7005 143.834 91.575 141.405 89.464L140.093 90.9736Z" fill="white"/>
<rect x="1" y="1" width="162" height="41" rx="20.5" fill="#7270FF" stroke="white" stroke-width="2"/>
<path d="M34.0455 15.3636H35.4545V23.0682C35.4545 23.8636 35.267 24.5739 34.892 25.1989C34.5208 25.8201 33.9962 26.3106 33.3182 26.6705C32.6402 27.0265 31.8447 27.2045 30.9318 27.2045C30.0189 27.2045 29.2235 27.0265 28.5455 26.6705C27.8674 26.3106 27.3409 25.8201 26.9659 25.1989C26.5947 24.5739 26.4091 23.8636 26.4091 23.0682V15.3636H27.8182V22.9545C27.8182 23.5227 27.9432 24.0284 28.1932 24.4716C28.4432 24.911 28.7992 25.2576 29.2614 25.5114C29.7273 25.7614 30.2841 25.8864 30.9318 25.8864C31.5795 25.8864 32.1364 25.7614 32.6023 25.5114C33.0682 25.2576 33.4242 24.911 33.6705 24.4716C33.9205 24.0284 34.0455 23.5227 34.0455 22.9545V15.3636ZM39.6776 15.3636V27H38.2685V15.3636H39.6776ZM46.4347 14.8182L42.6847 28.75H41.4574L45.2074 14.8182H46.4347ZM55.8423 15.3636H57.2514V23.0682C57.2514 23.8636 57.0639 24.5739 56.6889 25.1989C56.3177 25.8201 55.7931 26.3106 55.1151 26.6705C54.437 27.0265 53.6416 27.2045 52.7287 27.2045C51.8158 27.2045 51.0204 27.0265 50.3423 26.6705C49.6643 26.3106 49.1378 25.8201 48.7628 25.1989C48.3916 24.5739 48.206 23.8636 48.206 23.0682V15.3636H49.6151V22.9545C49.6151 23.5227 49.7401 24.0284 49.9901 24.4716C50.2401 24.911 50.5961 25.2576 51.0582 25.5114C51.5241 25.7614 52.081 25.8864 52.7287 25.8864C53.3764 25.8864 53.9332 25.7614 54.3991 25.5114C54.8651 25.2576 55.2211 24.911 55.4673 24.4716C55.7173 24.0284 55.8423 23.5227 55.8423 22.9545V15.3636ZM60.7472 15.3636L63.7472 20.2045H63.8381L66.8381 15.3636H68.4972L64.8381 21.1818L68.4972 27H66.8381L63.8381 22.25H63.7472L60.7472 27H59.0881L62.8381 21.1818L59.0881 15.3636H60.7472ZM77.9446 27.1818C77.2173 27.1818 76.5753 26.9981 76.0185 26.6307C75.4616 26.2595 75.026 25.7367 74.7116 25.0625C74.3973 24.3845 74.2401 23.5833 74.2401 22.6591C74.2401 21.7424 74.3973 20.947 74.7116 20.2727C75.026 19.5985 75.4635 19.0777 76.0241 18.7102C76.5848 18.3428 77.2325 18.1591 77.9673 18.1591C78.5355 18.1591 78.9844 18.2538 79.3139 18.4432C79.6473 18.6288 79.901 18.8409 80.0753 19.0795C80.2533 19.3144 80.3916 19.5076 80.4901 19.6591H80.6037V15.3636H81.9446V27H80.6491V25.6591H80.4901C80.3916 25.8182 80.2514 26.0189 80.0696 26.2614C79.8878 26.5 79.6283 26.714 79.2912 26.9034C78.9541 27.089 78.5052 27.1818 77.9446 27.1818ZM78.1264 25.9773C78.6643 25.9773 79.1188 25.8371 79.4901 25.5568C79.8613 25.2727 80.1435 24.8807 80.3366 24.3807C80.5298 23.8769 80.6264 23.2955 80.6264 22.6364C80.6264 21.9848 80.5317 21.4148 80.3423 20.9261C80.1529 20.4337 79.8726 20.0511 79.5014 19.7784C79.1302 19.5019 78.6719 19.3636 78.1264 19.3636C77.5582 19.3636 77.0848 19.5095 76.706 19.8011C76.331 20.089 76.0488 20.4811 75.8594 20.9773C75.6738 21.4697 75.581 22.0227 75.581 22.6364C75.581 23.2576 75.6757 23.822 75.8651 24.3295C76.0582 24.8333 76.3423 25.2348 76.7173 25.5341C77.0961 25.8295 77.5658 25.9773 78.1264 25.9773ZM88.2457 27.1818C87.4048 27.1818 86.6795 26.9962 86.0696 26.625C85.4635 26.25 84.9957 25.7273 84.6662 25.0568C84.3404 24.3826 84.1776 23.5985 84.1776 22.7045C84.1776 21.8106 84.3404 21.0227 84.6662 20.3409C84.9957 19.6553 85.4541 19.1212 86.0412 18.7386C86.6321 18.3523 87.3215 18.1591 88.1094 18.1591C88.5639 18.1591 89.0128 18.2348 89.456 18.3864C89.8991 18.5379 90.3026 18.7841 90.6662 19.125C91.0298 19.4621 91.3196 19.9091 91.5355 20.4659C91.7514 21.0227 91.8594 21.7083 91.8594 22.5227V23.0909H85.1321V21.9318H90.4957C90.4957 21.4394 90.3973 21 90.2003 20.6136C90.0071 20.2273 89.7306 19.9223 89.3707 19.6989C89.0147 19.4754 88.5942 19.3636 88.1094 19.3636C87.5753 19.3636 87.1132 19.4962 86.723 19.7614C86.3366 20.0227 86.0393 20.3636 85.831 20.7841C85.6226 21.2045 85.5185 21.6553 85.5185 22.1364V22.9091C85.5185 23.5682 85.6321 24.1269 85.8594 24.5852C86.0904 25.0398 86.4105 25.3864 86.8196 25.625C87.2287 25.8598 87.7041 25.9773 88.2457 25.9773C88.598 25.9773 88.9162 25.928 89.2003 25.8295C89.4882 25.7273 89.7363 25.5758 89.9446 25.375C90.1529 25.1705 90.3139 24.9167 90.4276 24.6136L91.723 24.9773C91.5866 25.4167 91.3575 25.803 91.0355 26.1364C90.7135 26.4659 90.3158 26.7235 89.8423 26.9091C89.3688 27.0909 88.8366 27.1818 88.2457 27.1818ZM100.081 20.2273L98.8764 20.5682C98.8007 20.3674 98.6889 20.1723 98.5412 19.983C98.3973 19.7898 98.2003 19.6307 97.9503 19.5057C97.7003 19.3807 97.3802 19.3182 96.9901 19.3182C96.456 19.3182 96.0109 19.4413 95.6548 19.6875C95.3026 19.9299 95.1264 20.2386 95.1264 20.6136C95.1264 20.947 95.2476 21.2102 95.4901 21.4034C95.7325 21.5966 96.1113 21.7576 96.6264 21.8864L97.9219 22.2045C98.7022 22.3939 99.2836 22.6837 99.6662 23.0739C100.049 23.4602 100.24 23.9583 100.24 24.5682C100.24 25.0682 100.096 25.5152 99.8082 25.9091C99.5241 26.303 99.1264 26.6136 98.6151 26.8409C98.1037 27.0682 97.509 27.1818 96.831 27.1818C95.9408 27.1818 95.2041 26.9886 94.6207 26.6023C94.0374 26.2159 93.6681 25.6515 93.5128 24.9091L94.7855 24.5909C94.9067 25.0606 95.1359 25.4129 95.473 25.6477C95.8139 25.8826 96.259 26 96.8082 26C97.4332 26 97.9295 25.8674 98.2969 25.6023C98.6681 25.3333 98.8537 25.0114 98.8537 24.6364C98.8537 24.3333 98.7476 24.0795 98.5355 23.875C98.3234 23.6667 97.9976 23.5114 97.5582 23.4091L96.1037 23.0682C95.3045 22.8788 94.7173 22.5852 94.3423 22.1875C93.9711 21.786 93.7855 21.2841 93.7855 20.6818C93.7855 20.1894 93.9238 19.7538 94.2003 19.375C94.4806 18.9962 94.8613 18.6989 95.3423 18.483C95.8272 18.267 96.3764 18.1591 96.9901 18.1591C97.8537 18.1591 98.5317 18.3485 99.0241 18.7273C99.5204 19.1061 99.8726 19.6061 100.081 20.2273ZM102.259 27V18.2727H103.599V27H102.259ZM102.94 16.8182C102.679 16.8182 102.454 16.7292 102.264 16.5511C102.079 16.3731 101.986 16.1591 101.986 15.9091C101.986 15.6591 102.079 15.4451 102.264 15.267C102.454 15.089 102.679 15 102.94 15C103.202 15 103.425 15.089 103.611 15.267C103.8 15.4451 103.895 15.6591 103.895 15.9091C103.895 16.1591 103.8 16.3731 103.611 16.5511C103.425 16.7292 103.202 16.8182 102.94 16.8182ZM109.578 30.4545C108.93 30.4545 108.374 30.3712 107.908 30.2045C107.442 30.0417 107.054 29.8258 106.743 29.5568C106.436 29.2917 106.192 29.0076 106.01 28.7045L107.078 27.9545C107.199 28.1136 107.353 28.2955 107.538 28.5C107.724 28.7083 107.978 28.8883 108.3 29.0398C108.625 29.1951 109.052 29.2727 109.578 29.2727C110.283 29.2727 110.864 29.1023 111.322 28.7614C111.781 28.4205 112.01 27.8864 112.01 27.1591V25.3864H111.896C111.798 25.5455 111.658 25.7424 111.476 25.9773C111.298 26.2083 111.04 26.4148 110.703 26.5966C110.37 26.7746 109.919 26.8636 109.351 26.8636C108.646 26.8636 108.014 26.697 107.453 26.3636C106.896 26.0303 106.455 25.5455 106.129 24.9091C105.807 24.2727 105.646 23.5 105.646 22.5909C105.646 21.697 105.804 20.9186 106.118 20.2557C106.432 19.589 106.87 19.0739 107.43 18.7102C107.991 18.3428 108.639 18.1591 109.374 18.1591C109.942 18.1591 110.393 18.2538 110.726 18.4432C111.063 18.6288 111.321 18.8409 111.499 19.0795C111.68 19.3144 111.821 19.5076 111.919 19.6591H112.055V18.2727H113.351V27.25C113.351 28 113.18 28.6098 112.839 29.0795C112.502 29.553 112.048 29.8996 111.476 30.1193C110.908 30.3428 110.275 30.4545 109.578 30.4545ZM109.533 25.6591C110.071 25.6591 110.525 25.536 110.896 25.2898C111.268 25.0436 111.55 24.6894 111.743 24.2273C111.936 23.7652 112.033 23.2121 112.033 22.5682C112.033 21.9394 111.938 21.3845 111.749 20.9034C111.559 20.4223 111.279 20.0455 110.908 19.7727C110.536 19.5 110.078 19.3636 109.533 19.3636C108.964 19.3636 108.491 19.5076 108.112 19.7955C107.737 20.0833 107.455 20.4697 107.266 20.9545C107.08 21.4394 106.987 21.9773 106.987 22.5682C106.987 23.1742 107.082 23.7102 107.271 24.1761C107.464 24.6383 107.749 25.0019 108.124 25.267C108.502 25.5284 108.972 25.6591 109.533 25.6591ZM117.146 21.75V27H115.805V18.2727H117.101V19.6364H117.214C117.419 19.1932 117.73 18.8371 118.146 18.5682C118.563 18.2955 119.101 18.1591 119.76 18.1591C120.351 18.1591 120.868 18.2803 121.311 18.5227C121.754 18.7614 122.099 19.125 122.345 19.6136C122.591 20.0985 122.714 20.7121 122.714 21.4545V27H121.374V21.5455C121.374 20.8598 121.196 20.3258 120.839 19.9432C120.483 19.5568 119.995 19.3636 119.374 19.3636C118.946 19.3636 118.563 19.4564 118.226 19.642C117.893 19.8277 117.629 20.0985 117.436 20.4545C117.243 20.8106 117.146 21.2424 117.146 21.75ZM128.824 27.1818C127.983 27.1818 127.258 26.9962 126.648 26.625C126.042 26.25 125.574 25.7273 125.244 25.0568C124.919 24.3826 124.756 23.5985 124.756 22.7045C124.756 21.8106 124.919 21.0227 125.244 20.3409C125.574 19.6553 126.032 19.1212 126.619 18.7386C127.21 18.3523 127.9 18.1591 128.688 18.1591C129.142 18.1591 129.591 18.2348 130.034 18.3864C130.477 18.5379 130.881 18.7841 131.244 19.125C131.608 19.4621 131.898 19.9091 132.114 20.4659C132.33 21.0227 132.438 21.7083 132.438 22.5227V23.0909H125.71V21.9318H131.074C131.074 21.4394 130.975 21 130.778 20.6136C130.585 20.2273 130.309 19.9223 129.949 19.6989C129.593 19.4754 129.172 19.3636 128.688 19.3636C128.153 19.3636 127.691 19.4962 127.301 19.7614C126.915 20.0227 126.617 20.3636 126.409 20.7841C126.201 21.2045 126.097 21.6553 126.097 22.1364V22.9091C126.097 23.5682 126.21 24.1269 126.438 24.5852C126.669 25.0398 126.989 25.3864 127.398 25.625C127.807 25.8598 128.282 25.9773 128.824 25.9773C129.176 25.9773 129.494 25.928 129.778 25.8295C130.066 25.7273 130.314 25.5758 130.523 25.375C130.731 25.1705 130.892 24.9167 131.006 24.6136L132.301 24.9773C132.165 25.4167 131.936 25.803 131.614 26.1364C131.292 26.4659 130.894 26.7235 130.42 26.9091C129.947 27.0909 129.415 27.1818 128.824 27.1818ZM134.477 27V18.2727H135.773V19.5909H135.864C136.023 19.1591 136.311 18.8087 136.727 18.5398C137.144 18.2708 137.614 18.1364 138.136 18.1364C138.235 18.1364 138.358 18.1383 138.506 18.142C138.653 18.1458 138.765 18.1515 138.841 18.1591V19.5227C138.795 19.5114 138.691 19.4943 138.528 19.4716C138.369 19.4451 138.201 19.4318 138.023 19.4318C137.598 19.4318 137.22 19.5208 136.886 19.6989C136.557 19.8731 136.295 20.1155 136.102 20.4261C135.913 20.733 135.818 21.0833 135.818 21.4773V27H134.477Z" fill="white"/>
</svg>
