<svg width="150" height="123" viewBox="0 0 150 123" fill="none" xmlns="http://www.w3.org/2000/svg">
<path d="M-0.000150882 118.374L8.47124 112.282L9.51083 122.664L-0.000150882 118.374ZM20.6251 115.184L20.8294 116.065L20.6251 115.184ZM37.5003 105.617L36.8448 104.995L36.8448 104.995L37.5003 105.617ZM39.3753 84.5686L40.1506 84.1043L40.1506 84.1043L39.3753 84.5686ZM27.5002 96.0496L28.0085 95.3025L27.5002 96.0496ZM47.0314 72.0226L46.4365 72.7027L46.4365 72.7027L47.0314 72.0226ZM85.6635 59.9038L86.448 60.3523L85.6635 59.9038ZM27.3075 81.488L27.8622 82.2013L27.3075 81.488ZM23.7145 88.752L22.8123 88.8029L23.7145 88.752ZM7.95707 116.67C12.2731 116.019 17.0525 115.086 20.4208 114.304L20.8294 116.065C17.4155 116.857 12.5897 117.799 8.22642 118.457L7.95707 116.67ZM20.4208 114.304C28.4573 112.439 33.3081 108.722 36.8448 104.995L38.1558 106.239C34.4291 110.166 29.2798 114.103 20.8294 116.065L20.4208 114.304ZM36.8448 104.995C37.5991 104.2 39.6716 101.93 40.7414 98.5089C41.799 95.1269 41.9013 90.5457 38.6001 85.0328L40.1506 84.1043C43.7244 90.0724 43.6731 95.1893 42.4663 99.0483C41.2718 102.868 38.9693 105.382 38.1558 106.239L36.8448 104.995ZM38.6001 85.0328C36.6717 81.8125 34.6912 80.6408 32.9606 80.4355C31.1919 80.2258 29.4185 80.9909 27.8622 82.2013L26.7527 80.7747C28.4995 79.4161 30.7425 78.3526 33.1734 78.6409C35.6422 78.9337 38.0441 80.5867 40.1506 84.1043L38.6001 85.0328ZM24.6167 88.7011C24.7768 91.5378 26.2003 94.0723 28.0085 95.3025L26.9919 96.7967C24.654 95.2062 22.9994 92.1179 22.8123 88.8029L24.6167 88.7011ZM28.0085 95.3025C28.2872 95.4921 28.9319 95.7068 30.0112 95.834C31.051 95.9565 32.3771 95.9856 33.9096 95.8979C36.973 95.7227 40.7903 95.0849 44.6686 93.8582C52.4727 91.39 60.2593 86.6295 62.9325 78.7485L64.644 79.3291C61.6921 88.0317 53.2097 93.0523 45.2136 95.5813C41.1918 96.8534 37.2261 97.5184 34.0128 97.7022C32.407 97.7941 30.9713 97.7669 29.7996 97.6288C28.6673 97.4953 27.6507 97.2449 26.9919 96.7967L28.0085 95.3025ZM62.9325 78.7485C65.5999 70.8846 62.2129 62.9337 57.1225 57.6613C54.5841 55.0323 51.6791 53.1344 49.0086 52.2728C46.3261 51.4073 44.0418 51.6257 42.4984 52.9383L41.3276 51.5616C43.5342 49.685 46.5624 49.5846 49.5636 50.5528C52.5767 51.525 55.7265 53.6135 58.4226 56.406C63.8011 61.9768 67.6016 70.6094 64.644 79.3291L62.9325 78.7485ZM42.4984 52.9383C40.8052 54.3782 40.09 56.0009 39.9687 57.6747C39.8449 59.3822 40.3362 61.2127 41.1928 63.0184C42.9105 66.6389 45.9687 69.8926 47.6263 71.3425L46.4365 72.7027C44.6721 71.1594 41.4211 67.7158 39.56 63.793C38.6273 61.8269 38.0118 59.6741 38.1662 57.544C38.323 55.3801 39.2707 53.3109 41.3276 51.5616L42.4984 52.9383ZM47.6263 71.3425C48.5324 72.1351 50.6116 73.0157 53.5363 73.5453C56.4166 74.0668 59.9856 74.2233 63.7575 73.6796C71.2899 72.5939 79.5775 68.7302 84.879 59.4554L86.448 60.3523C80.8118 70.2125 71.9709 74.3216 64.0154 75.4683C60.0434 76.0408 56.2786 75.8784 53.2143 75.3236C50.1943 74.7768 47.7179 73.8237 46.4365 72.7027L47.6263 71.3425ZM84.879 59.4554C86.9767 55.7857 88.0528 50.8264 88.5956 46.6327C89.1353 42.462 89.135 39.1569 89.135 38.8555H90.9422C90.9422 39.1918 90.9418 42.584 90.3878 46.8646C89.8368 51.1221 88.7254 56.3681 86.448 60.3523L84.879 59.4554ZM27.8622 82.2013C25.8057 83.8007 24.4772 86.2283 24.6167 88.7011L22.8123 88.8029C22.6325 85.6148 24.3337 82.6561 26.7527 80.7747L27.8622 82.2013Z" fill="white"/>
<rect x="-0.903614" y="0.903614" width="118.373" height="37.0482" rx="18.5241" transform="matrix(-1 0 0 1 148.193 0)" fill="#7270FF" stroke="white" stroke-width="1.80723"/>
<path d="M54.9562 14.3285V24.8433H53.6829V14.3285H54.9562ZM65.8471 14.3285V24.8433H64.6149L58.8851 16.5875H58.7825V24.8433H57.5092V14.3285H58.7414L64.4917 22.6048H64.5943V14.3285H65.8471ZM68.3949 24.8433V14.3285H74.6997V15.458H69.6682V19.0108H74.2273V20.1404H69.6682V24.8433H68.3949ZM79.9173 14.3285H81.1906V21.8449C81.1906 22.5158 81.0673 23.0857 80.8209 23.5546C80.5745 24.0235 80.227 24.3795 79.7787 24.6225C79.3303 24.8655 78.8015 24.987 78.1922 24.987C77.6172 24.987 77.1055 24.8826 76.6571 24.6738C76.2087 24.4616 75.8562 24.1604 75.5994 23.7702C75.3427 23.38 75.2144 22.9162 75.2144 22.3789H76.4671C76.4671 22.6766 76.5407 22.9368 76.6879 23.1593C76.8385 23.3783 77.0439 23.5495 77.304 23.6727C77.5641 23.7959 77.8602 23.8575 78.1922 23.8575C78.5584 23.8575 78.8699 23.7805 79.1266 23.6265C79.3833 23.4724 79.5784 23.2465 79.7119 22.9488C79.8488 22.6475 79.9173 22.2796 79.9173 21.8449V14.3285ZM91.3614 13.8356L87.9728 26.4246H86.8638L90.2524 13.8356H91.3614ZM98.3015 14.3285V24.8433H97.0282V14.3285H98.3015ZM109.192 14.3285V24.8433H107.96L102.23 16.5875H102.128V24.8433H100.854V14.3285H102.087L107.837 22.6048H107.94V14.3285H109.192ZM111.74 24.8433V14.3285H118.045V15.458H113.013V19.0108H117.573V20.1404H113.013V24.8433H111.74ZM120.226 24.8433V14.3285H123.779C124.603 14.3285 125.278 14.4774 125.801 14.7751C126.328 15.0695 126.719 15.4683 126.972 15.9714C127.225 16.4746 127.352 17.0359 127.352 17.6554C127.352 18.2749 127.225 18.838 126.972 19.3446C126.722 19.8511 126.335 20.255 125.812 20.5562C125.288 20.854 124.617 21.0029 123.799 21.0029H121.253V19.8734H123.758C124.323 19.8734 124.776 19.7758 125.119 19.5807C125.461 19.3856 125.709 19.1221 125.863 18.7901C126.02 18.4546 126.099 18.0764 126.099 17.6554C126.099 17.2344 126.02 16.8579 125.863 16.5259C125.709 16.1939 125.459 15.9338 125.113 15.7455C124.768 15.5538 124.309 15.458 123.737 15.458H121.499V24.8433H120.226Z" fill="white"/>
</svg>
