<svg width="75" height="72" viewBox="0 0 75 72" fill="none" xmlns="http://www.w3.org/2000/svg">
<path d="M35.5979 1.8541C36.1966 0.0114789 38.8034 0.0114816 39.4021 1.8541L46.8173 24.6758C47.0851 25.4998 47.853 26.0578 48.7194 26.0578L72.7156 26.0578C74.653 26.0578 75.4586 28.537 73.8912 29.6758L54.4779 43.7804C53.7769 44.2897 53.4836 45.1924 53.7513 46.0164L61.1665 68.8381C61.7652 70.6808 59.6563 72.213 58.0889 71.0742L38.6756 56.9696C37.9746 56.4603 37.0254 56.4603 36.3244 56.9696L16.9111 71.0742C15.3437 72.213 13.2348 70.6808 13.8335 68.8381L21.2487 46.0164C21.5164 45.1924 21.2231 44.2897 20.5221 43.7804L1.10883 29.6758C-0.458593 28.537 0.34696 26.0578 2.28441 26.0578L26.2806 26.0578C27.147 26.0578 27.9149 25.4998 28.1827 24.6758L35.5979 1.8541Z" fill="#8D91FF"/>
</svg>
