<svg width="85" height="81" viewBox="0 0 85 81" fill="none" xmlns="http://www.w3.org/2000/svg">
<path d="M40.5979 1.85411C41.1966 0.0114846 43.8034 0.0114811 44.4021 1.8541L52.9399 28.1307C53.2076 28.9548 53.9756 29.5127 54.842 29.5127H82.4709C84.4083 29.5127 85.2139 31.9919 83.6464 33.1307L61.2942 49.3705C60.5932 49.8798 60.2999 50.7826 60.5677 51.6066L69.1055 77.8832C69.7042 79.7258 67.5952 81.2581 66.0278 80.1193L43.6756 63.8795C42.9746 63.3702 42.0254 63.3702 41.3244 63.8795L18.9722 80.1193C17.4048 81.2581 15.2958 79.7258 15.8945 77.8832L24.4323 51.6066C24.7001 50.7826 24.4067 49.8798 23.7058 49.3705L1.35356 33.1307C-0.213871 31.9919 0.591681 29.5127 2.52913 29.5127H30.158C31.0244 29.5127 31.7924 28.9548 32.0601 28.1307L40.5979 1.85411Z" fill="#8D91FF"/>
</svg>
